<?xml version="1.0" encoding="UTF-8"?>
<svg version="1.1" xmlns="http://www.w3.org/2000/svg" width="1080" height="1080">
<path d="M0 0 C1.49853516 0.40025391 1.49853516 0.40025391 3.02734375 0.80859375 C22.77304362 6.77206015 42.12982433 18.14247759 56.73828125 32.73657227 C61.88617518 37.6925831 66.16779697 39.32089312 73.125 40.5625 C96.46140729 45.48688264 111.19868323 57.43395294 127.32104492 74.37109375 C129.10689844 76.20217486 129.10689844 76.20217486 132 78 C132 78.66 132 79.32 132 80 C132.99 80.33 133.98 80.66 135 81 C148.16428837 96.30243712 158.14461588 116.16615486 157.98461914 136.70922852 C158.03376205 143.22963487 158.53908172 147.5114789 163.0625 152.5625 C164.66599196 154.08746391 166.31084285 155.57050726 168 157 C168.67933594 157.58523438 169.35867188 158.17046875 170.05859375 158.7734375 C170.69925781 159.32257813 171.33992188 159.87171875 172 160.4375 C184.88531328 171.4856993 193.84338402 187.62614812 198 204 C198.33451172 205.30130859 198.33451172 205.30130859 198.67578125 206.62890625 C203.25502262 228.52827144 199.76106317 250.48876556 189.375 270.0625 C188.84996933 274.17524027 190.51254709 276.32258477 192.48828125 279.87890625 C194.35762829 283.73835918 195.56553014 287.63726969 196.75 291.75 C196.96019775 292.47098877 197.17039551 293.19197754 197.38696289 293.93481445 C199.57200338 301.65969604 200.18213734 308.86317912 200.1875 316.875 C200.19974609 317.83019531 200.21199219 318.78539062 200.22460938 319.76953125 C200.23647853 325.5379404 199.65386949 330.46966961 198 336 C198.81597656 336.2371875 199.63195312 336.474375 200.47265625 336.71875 C204.72172297 338.26215408 208.50422314 340.28874639 212.4375 342.5 C213.22882324 342.94359863 214.02014648 343.38719727 214.83544922 343.84423828 C240.75307972 358.56295683 265.76030604 378.07366488 286 400 C286 400.66 286 401.32 286 402 C286.57234375 402.25136719 287.1446875 402.50273438 287.734375 402.76171875 C298.29819875 408.53539483 305.46284573 421.06426983 309.5 432 C313.64171015 447.34104297 312.10782429 463.67367749 304.578125 477.63671875 C303.1631457 479.87710265 301.65561578 481.93251921 300 484 C299.47664062 484.68449219 298.95328125 485.36898438 298.4140625 486.07421875 C290.14169631 496.26903623 278.05590995 503.13487001 265 505 C253.33114477 505.78781764 242.96964697 505.32747541 232 501 C228.81665963 499.80129989 225.62677595 498.62030255 222.4375 497.4375 C221.61822021 497.13102539 220.79894043 496.82455078 219.95483398 496.50878906 C210.16891896 492.88299092 200.27969943 490.72002845 190 489 C187.92204577 494.14592555 186.01445046 499.344889 184.125 504.5625 C183.54105469 506.17366699 183.54105469 506.17366699 182.9453125 507.81738281 C180.55150966 514.48823807 178.2580875 521.18224729 176.0546875 527.91796875 C175.67997818 529.06323784 175.67997818 529.06323784 175.29769897 530.23164368 C175.04622101 531.00042343 174.79474304 531.76920319 174.53564453 532.5612793 C169.69082249 547.36769005 164.66794531 561.89216526 158 576 C157.67080566 576.70914551 157.34161133 577.41829102 157.00244141 578.14892578 C137.25229484 620.44543936 104.58658954 651.21457159 61 668 C46.74739303 673.06205388 31.94099589 675.85587272 17 678 C15.80665039 678.1750708 14.61330078 678.3501416 13.38378906 678.53051758 C8.19336642 679.16595656 3.00903756 679.21796344 -2.21484375 679.2734375 C-3.29095413 679.28601089 -4.36706451 679.29858429 -5.4757843 679.3115387 C-66.71128751 679.88757977 -123.55431752 668.95318951 -168.63502502 624.73039246 C-170.22094114 623.1594064 -171.79937147 621.58130133 -173.375 620 C-173.9211496 619.45363892 -174.46729919 618.90727783 -175.02999878 618.34436035 C-183.8577095 609.48259073 -192.00716489 600.40787537 -199 590 C-199.38349609 589.43458496 -199.76699219 588.86916992 -200.16210938 588.28662109 C-213.31207618 568.62567514 -222.02544125 546.22109308 -228.1875 523.5 C-228.48398437 522.41895996 -228.78046875 521.33791992 -229.0859375 520.22412109 C-236.22483963 492.74792081 -240.10248932 464.44226405 -244.375 436.41503906 C-250.721381 393.65682073 -250.721381 393.65682073 -262 352 C-262.40387939 350.79875488 -262.40387939 350.79875488 -262.81591797 349.57324219 C-271.89520549 322.91310429 -285.70206198 300.64995419 -306.125 281.0625 C-316.08308495 271.15080364 -322.07558276 259.09736287 -323 245 C-323.0515625 244.34128906 -323.103125 243.68257812 -323.15625 243.00390625 C-323.80607938 228.24736399 -318.21100365 213.70415649 -308.6875 202.5625 C-297.50334386 191.05771881 -282.87143649 184.26142703 -266.73046875 183.93359375 C-257.40361018 184.27903296 -249.67822058 186.84428343 -241 190 C-239.67317685 190.35837024 -238.34257706 190.70610253 -237 191 C-236.731875 190.00742187 -236.46375 189.01484375 -236.1875 187.9921875 C-231.29872904 170.72637495 -222.47225955 156.09295679 -209 144 C-208.27554688 143.60296875 -207.55109375 143.2059375 -206.8046875 142.796875 C-204.62107268 141.0071117 -204.62107268 141.0071117 -204.6796875 137.48046875 C-204.72900729 136.04884824 -204.7951308 134.61774147 -204.875 133.1875 C-205.51165901 108.45735842 -197.25388987 85.67523004 -181 67 C-178.48888206 64.42008431 -175.85050875 62.19427652 -173 60 C-171.67742187 58.92492187 -171.67742187 58.92492187 -170.328125 57.828125 C-158.53218437 48.52867974 -146.77654489 43.49822368 -132.34765625 40.04296875 C-131.611521 39.86548096 -130.87538574 39.68799316 -130.11694336 39.50512695 C-128.14493415 39.03458295 -126.17021647 38.57543011 -124.1953125 38.1171875 C-120.68189052 36.88877835 -119.25165364 35.69797927 -116.8125 32.9375 C-87.90189732 2.46679734 -40.45909033 -11.03429736 0 0 Z " fill="#95C262" transform="translate(555,201)"/>
<path d="M0 0 C9.46810088 6.71974069 17.71163815 14.63819962 25.38671875 23.31640625 C26.14726563 24.17234375 26.9078125 25.02828125 27.69140625 25.91015625 C28.30757812 26.66296875 28.92375 27.41578125 29.55859375 28.19140625 C33.90988781 31.69794358 39.57277347 30.97877291 44.89477539 30.79345703 C52.34729789 30.55048553 58.27099805 30.70866213 64.69140625 34.91015625 C65.37332031 35.32265625 66.05523438 35.73515625 66.7578125 36.16015625 C74.09263169 41.05931442 79.45602916 48.36558402 81.69140625 56.91015625 C82.82895422 67.78248975 82.22308162 76.70901356 75.69140625 85.91015625 C73.92032369 87.95482067 72.13147877 89.81101905 70.109375 91.60546875 C67.86987794 93.66605282 67.69154902 94.90875714 67.37890625 97.97265625 C67.76375825 102.82179149 69.16040531 106.75389719 71.69140625 110.91015625 C74.84421954 113.01203178 75.62494803 113.15676743 79.2265625 113.18359375 C80.55747925 113.21005981 80.55747925 113.21005981 81.9152832 113.23706055 C82.85202881 113.25293213 83.78877441 113.26880371 84.75390625 113.28515625 C98.07320285 113.73224856 107.10867851 117.02821362 116.44140625 126.78515625 C120.6041852 132.56679369 123.20242074 137.69761994 123.69140625 144.91015625 C123.78615234 146.163125 123.78615234 146.163125 123.8828125 147.44140625 C124.32218576 157.53281788 121.07664315 165.14167206 114.671875 172.87109375 C109.51295586 178.18264364 103.79205172 181.30462027 96.63671875 183.07421875 C93.98542838 184.21352827 93.0923675 185.39616136 91.69140625 187.91015625 C90.8195943 193.19188362 90.66672296 198.19015215 93.44140625 202.84765625 C97.36946738 205.34046427 101.43961555 206.90025406 105.75390625 208.61328125 C114.56023963 212.50118375 119.39211929 220.06026969 122.83984375 228.83203125 C125.17825169 237.28462509 124.42504726 246.9662392 120.69140625 254.91015625 C115.35632575 263.60436151 107.89675766 268.76024348 99.2578125 273.83203125 C97.52615061 274.83798165 97.52615061 274.83798165 96.69140625 276.91015625 C96.37128836 280.50722776 96.36708293 284.11309424 96.31640625 287.72265625 C96.27902344 288.72103516 96.24164062 289.71941406 96.203125 290.74804688 C96.10678077 296.76890261 96.10678077 296.76890261 98.9140625 301.96484375 C101.42060524 303.72048128 103.67260749 305.08168511 106.50390625 306.22265625 C107.29410156 306.54878906 108.08429688 306.87492187 108.8984375 307.2109375 C109.49011719 307.44167969 110.08179688 307.67242188 110.69140625 307.91015625 C110.69140625 308.24015625 110.69140625 308.57015625 110.69140625 308.91015625 C108.9125 309.05710937 108.9125 309.05710937 107.09765625 309.20703125 C70.81997368 312.44328116 41.97765991 329.63178719 18.0234375 357.08203125 C-5.97182243 386.18181046 -21.94203656 419.27874859 -36.30859375 453.91015625 C-38.06776631 450.65335617 -39.19580307 447.36372623 -40.3046875 443.8359375 C-45.68017299 427.03251839 -51.71808792 410.86880349 -59.30859375 394.91015625 C-60.10523438 393.22841309 -60.10523438 393.22841309 -60.91796875 391.51269531 C-74.57677998 362.91057015 -90.89100499 335.97278833 -110.30859375 310.91015625 C-110.72286621 310.37116699 -111.13713867 309.83217773 -111.56396484 309.27685547 C-129.28701575 286.23885779 -148.99228858 263.61527749 -171.30859375 244.91015625 C-172.40096411 243.96756308 -173.49197519 243.02339358 -174.58203125 242.078125 C-180.54309091 236.91878886 -186.51291332 231.83929199 -192.83203125 227.1171875 C-193.56292969 226.51970703 -193.56292969 226.51970703 -194.30859375 225.91015625 C-194.30859375 225.58015625 -194.30859375 225.25015625 -194.30859375 224.91015625 C-193.76332031 224.80960938 -193.21804688 224.7090625 -192.65625 224.60546875 C-185.96848199 222.93638477 -182.97387242 219.69977979 -178.65234375 214.48046875 C-175.60309512 211.13645942 -172.19834745 208.86183383 -168.375 206.48046875 C-165.28822482 204.13475301 -164.52612572 201.8672969 -163.68359375 198.16015625 C-162.65148003 190.21314569 -162.65148003 190.21314569 -165.30859375 182.91015625 C-167.49284549 181.31343884 -167.49284549 181.31343884 -170.05859375 179.97265625 C-179.40735288 174.5595098 -184.4834826 168.58769169 -188.68359375 158.66015625 C-190.28886349 149.02853782 -190.5355892 139.44431236 -185.30859375 130.91015625 C-179.33466447 122.91753181 -172.59148241 116.38148953 -162.58984375 114.23828125 C-158.75804492 113.6871321 -154.9073246 113.45413194 -151.04296875 113.25390625 C-148.26994853 112.90529799 -146.619132 112.46064902 -144.30859375 110.91015625 C-141.40771162 107.09603345 -139.31143221 101.99208283 -139.51953125 97.16796875 C-140.87403499 93.29221053 -143.76793215 90.49463857 -146.44726562 87.46484375 C-153.64630067 79.24911189 -155.16568251 71.41226309 -154.69140625 60.6875 C-154.18524395 55.69302099 -153.00709969 52.10970612 -150.30859375 47.91015625 C-149.68984375 46.88535156 -149.68984375 46.88535156 -149.05859375 45.83984375 C-144.3571014 38.81431825 -137.29956964 33.63933258 -129.30859375 30.91015625 C-126.70898438 30.73071289 -126.70898438 30.73071289 -123.96484375 30.8203125 C-122.46630859 30.8502832 -122.46630859 30.8502832 -120.9375 30.88085938 C-118.85144434 30.94206076 -116.76549956 31.00716561 -114.6796875 31.07617188 C-107.43741537 31.36304142 -107.43741537 31.36304142 -101.30859375 27.91015625 C-99.07400374 25.48804714 -99.07400374 25.48804714 -96.99609375 22.72265625 C-89.71933264 13.61473651 -81.85893062 6.6178341 -72.30859375 -0.08984375 C-71.50679688 -0.65960938 -70.705 -1.229375 -69.87890625 -1.81640625 C-48.05509211 -16.14517311 -21.52591706 -13.50984521 0 0 Z " fill="#F8B84F" transform="translate(568.30859375,265.08984375)"/>
<path d="M0 0 C1.49853516 0.40025391 1.49853516 0.40025391 3.02734375 0.80859375 C22.77304362 6.77206015 42.12982433 18.14247759 56.73828125 32.73657227 C61.88617518 37.6925831 66.16779697 39.32089312 73.125 40.5625 C96.46140729 45.48688264 111.19868323 57.43395294 127.32104492 74.37109375 C129.10689844 76.20217486 129.10689844 76.20217486 132 78 C132 78.66 132 79.32 132 80 C132.99 80.33 133.98 80.66 135 81 C148.16428837 96.30243712 158.14461588 116.16615486 157.98461914 136.70922852 C158.03376205 143.22963487 158.53908172 147.5114789 163.0625 152.5625 C164.66599196 154.08746391 166.31084285 155.57050726 168 157 C168.67933594 157.58523438 169.35867188 158.17046875 170.05859375 158.7734375 C170.69925781 159.32257813 171.33992188 159.87171875 172 160.4375 C184.88531328 171.4856993 193.84338402 187.62614812 198 204 C198.33451172 205.30130859 198.33451172 205.30130859 198.67578125 206.62890625 C203.25502262 228.52827144 199.76106317 250.48876556 189.375 270.0625 C188.84996933 274.17524027 190.51254709 276.32258477 192.48828125 279.87890625 C194.35762829 283.73835918 195.56553014 287.63726969 196.75 291.75 C196.96019775 292.47098877 197.17039551 293.19197754 197.38696289 293.93481445 C199.57200338 301.65969604 200.18213734 308.86317912 200.1875 316.875 C200.19974609 317.83019531 200.21199219 318.78539062 200.22460938 319.76953125 C200.23647853 325.5379404 199.65386949 330.46966961 198 336 C198.81597656 336.2371875 199.63195312 336.474375 200.47265625 336.71875 C204.72172297 338.26215408 208.50422314 340.28874639 212.4375 342.5 C213.22882324 342.94359863 214.02014648 343.38719727 214.83544922 343.84423828 C240.75307972 358.56295683 265.76030604 378.07366488 286 400 C286 400.66 286 401.32 286 402 C286.57234375 402.25136719 287.1446875 402.50273438 287.734375 402.76171875 C298.29819875 408.53539483 305.46284573 421.06426983 309.5 432 C313.64171015 447.34104297 312.10782429 463.67367749 304.578125 477.63671875 C303.1631457 479.87710265 301.65561578 481.93251921 300 484 C299.47664062 484.68449219 298.95328125 485.36898438 298.4140625 486.07421875 C290.14169631 496.26903623 278.05590995 503.13487001 265 505 C253.33114477 505.78781764 242.96964697 505.32747541 232 501 C228.81665963 499.80129989 225.62677595 498.62030255 222.4375 497.4375 C221.61822021 497.13102539 220.79894043 496.82455078 219.95483398 496.50878906 C210.16891896 492.88299092 200.27969943 490.72002845 190 489 C187.92204577 494.14592555 186.01445046 499.344889 184.125 504.5625 C183.54105469 506.17366699 183.54105469 506.17366699 182.9453125 507.81738281 C180.55150966 514.48823807 178.2580875 521.18224729 176.0546875 527.91796875 C175.67997818 529.06323784 175.67997818 529.06323784 175.29769897 530.23164368 C175.04622101 531.00042343 174.79474304 531.76920319 174.53564453 532.5612793 C169.69082249 547.36769005 164.66794531 561.89216526 158 576 C157.67080566 576.70914551 157.34161133 577.41829102 157.00244141 578.14892578 C137.25229484 620.44543936 104.58658954 651.21457159 61 668 C46.74739303 673.06205388 31.94099589 675.85587272 17 678 C15.80665039 678.1750708 14.61330078 678.3501416 13.38378906 678.53051758 C8.19336642 679.16595656 3.00903756 679.21796344 -2.21484375 679.2734375 C-3.29095413 679.28601089 -4.36706451 679.29858429 -5.4757843 679.3115387 C-66.71128751 679.88757977 -123.55431752 668.95318951 -168.63502502 624.73039246 C-170.22094114 623.1594064 -171.79937147 621.58130133 -173.375 620 C-173.9211496 619.45363892 -174.46729919 618.90727783 -175.02999878 618.34436035 C-183.8577095 609.48259073 -192.00716489 600.40787537 -199 590 C-199.38349609 589.43458496 -199.76699219 588.86916992 -200.16210938 588.28662109 C-213.31207618 568.62567514 -222.02544125 546.22109308 -228.1875 523.5 C-228.48398437 522.41895996 -228.78046875 521.33791992 -229.0859375 520.22412109 C-236.22483963 492.74792081 -240.10248932 464.44226405 -244.375 436.41503906 C-250.721381 393.65682073 -250.721381 393.65682073 -262 352 C-262.40387939 350.79875488 -262.40387939 350.79875488 -262.81591797 349.57324219 C-271.89520549 322.91310429 -285.70206198 300.64995419 -306.125 281.0625 C-316.08308495 271.15080364 -322.07558276 259.09736287 -323 245 C-323.0515625 244.34128906 -323.103125 243.68257812 -323.15625 243.00390625 C-323.80607938 228.24736399 -318.21100365 213.70415649 -308.6875 202.5625 C-297.50334386 191.05771881 -282.87143649 184.26142703 -266.73046875 183.93359375 C-257.40361018 184.27903296 -249.67822058 186.84428343 -241 190 C-239.67317685 190.35837024 -238.34257706 190.70610253 -237 191 C-236.731875 190.00742187 -236.46375 189.01484375 -236.1875 187.9921875 C-231.29872904 170.72637495 -222.47225955 156.09295679 -209 144 C-208.27554688 143.60296875 -207.55109375 143.2059375 -206.8046875 142.796875 C-204.62107268 141.0071117 -204.62107268 141.0071117 -204.6796875 137.48046875 C-204.72900729 136.04884824 -204.7951308 134.61774147 -204.875 133.1875 C-205.51165901 108.45735842 -197.25388987 85.67523004 -181 67 C-178.48888206 64.42008431 -175.85050875 62.19427652 -173 60 C-171.67742187 58.92492187 -171.67742187 58.92492187 -170.328125 57.828125 C-158.53218437 48.52867974 -146.77654489 43.49822368 -132.34765625 40.04296875 C-131.611521 39.86548096 -130.87538574 39.68799316 -130.11694336 39.50512695 C-128.14493415 39.03458295 -126.17021647 38.57543011 -124.1953125 38.1171875 C-120.68189052 36.88877835 -119.25165364 35.69797927 -116.8125 32.9375 C-87.90189732 2.46679734 -40.45909033 -11.03429736 0 0 Z M-83 56 C-83.90878906 56.74765625 -84.81757813 57.4953125 -85.75390625 58.265625 C-90.56575716 62.4016999 -95.24735487 66.85972082 -99 72 C-99 72.66 -99 73.32 -99 74 C-100.20914063 73.94199219 -101.41828125 73.88398438 -102.6640625 73.82421875 C-118.21390726 73.3028613 -129.54962218 76.09051562 -142 86 C-143.051875 86.763125 -144.10375 87.52625 -145.1875 88.3125 C-154.80042197 97.49818099 -161.61890734 110.88933453 -162.3359375 124.26171875 C-162.36564251 125.73673755 -162.3782107 127.21218562 -162.375 128.6875 C-162.37338867 129.46915527 -162.37177734 130.25081055 -162.37011719 131.05615234 C-162.15709522 141.25823382 -158.87312856 150.1239444 -154 159 C-154.85078125 159.103125 -155.7015625 159.20625 -156.578125 159.3125 C-169.42435045 161.8934768 -180.63713639 170.61104569 -187.8125 181.3125 C-195.9831482 195.02682677 -199.33083095 208.92781577 -196.28125 224.72265625 C-195.34139122 227.90225913 -194.25681919 230.93286178 -193 234 C-192.67257812 234.85722656 -192.34515625 235.71445312 -192.0078125 236.59765625 C-188.11490983 245.56269854 -180.84696895 252.22196026 -174 259 C-176.66666667 260.33333333 -179.33333333 261.66666667 -182 263 C-182.53882813 262.58492187 -183.07765625 262.16984375 -183.6328125 261.7421875 C-199.94430896 249.52134846 -217.60736322 239.23369673 -235.44384766 229.42919922 C-237.76560299 228.13105636 -240.04796216 226.78601019 -242.32421875 225.41015625 C-250.09917679 220.79441342 -256.87437347 217.99090981 -266 220 C-271.7095489 222.35497714 -276.19494459 226.24005582 -279.1875 231.6640625 C-281.30399776 237.74899356 -281.05409487 244.04221512 -278.4375 249.8984375 C-275.91160929 254.63441234 -272.32427097 257.99090107 -268.4375 261.625 C-221.69009321 306.96607223 -210.79176897 373.35212235 -201.73632812 434.99389648 C-199.08317734 453.04501873 -196.27548334 471.04904214 -193 489 C-192.81743652 490.0096582 -192.63487305 491.01931641 -192.44677734 492.05957031 C-184.66682761 534.05549474 -167.80950763 577.23302331 -131.8527832 602.79321289 C-109.92022859 617.81855898 -83.39336933 626.56872674 -57 629 C-56.05737305 629.08757568 -55.11474609 629.17515137 -54.14355469 629.26538086 C-44.49207229 630.06021716 -34.87552789 630.18618351 -25.19580078 630.18530273 C-22.50407249 630.18749668 -19.81275049 630.20575063 -17.12109375 630.22460938 C-7.19984352 630.25692652 2.21372081 629.76252463 12 628 C13.42310584 627.77428992 14.84627104 627.54895334 16.26953125 627.32421875 C51.20742508 621.04541313 82.76009383 604.63518593 103.55200195 575.09790039 C115.23275065 557.97382778 123.09552953 539.57097188 129.91870117 520.06933594 C130.96466413 517.10030313 132.04838759 514.14758017 133.140625 511.1953125 C134.72995032 506.83932555 136.07881114 502.46717008 137.3125 498 C149.75727598 454.75942744 149.75727598 454.75942744 165.875 444.5625 C180.01077124 437.98813258 198.75981418 441.27310847 213 446 C214.07910645 446.34869141 215.15821289 446.69738281 216.27001953 447.05664062 C238.49408495 454.24704247 238.49408495 454.24704247 242 456 C248.55121502 456.50997482 254.39619475 456.82698895 260 453 C260.86625 452.443125 261.7325 451.88625 262.625 451.3125 C267.48372692 446.58163432 269.2546719 441.82314091 269.625 435.0625 C269.17988753 425.17111187 263.16753541 419.91417049 256.3125 413.5 C250.38817694 408.11123945 244.3313306 402.9061577 238 398 C237.28038086 397.44022461 236.56076172 396.88044922 235.81933594 396.30371094 C225.26271118 388.13180173 214.68094013 380.47281942 203 374 C202.34499512 373.62681641 201.68999023 373.25363281 201.01513672 372.86914062 C190.07823094 366.64924755 178.9022543 362.03819464 167 358 C166.25226318 357.73566162 165.50452637 357.47132324 164.73413086 357.19897461 C159.72313414 355.45712088 154.79137853 354.19761082 149.5625 353.3125 C148.83039307 353.18512451 148.09828613 353.05774902 147.34399414 352.92651367 C141.83612268 352.01978558 136.5876269 351.73392253 131 352 C131 351.34 131 350.68 131 350 C131.66 349.814375 132.32 349.62875 133 349.4375 C145.15444014 343.61349743 151.70241977 331.18452522 156 319 C160.09636291 306.65341846 158.82765754 293.92527326 154 282 C153.67257812 281.14148438 153.34515625 280.28296875 153.0078125 279.3984375 C149.10988155 270.43604153 141.84709299 263.77816253 135 257 C135.59167969 256.73058594 136.18335938 256.46117187 136.79296875 256.18359375 C146.84506005 250.7928262 152.73047341 238.82862095 156.2734375 228.5078125 C160.18405941 215.00985946 158.73398703 199.78803203 152.3125 187.3125 C143.60866762 172.68581583 131.75600443 162.38166213 115 158 C111.74697155 157.83723737 111.74697155 157.83723737 109 158 C109.33773438 157.23816406 109.67546875 156.47632813 110.0234375 155.69140625 C116.71929639 140.1902994 118.26158488 125.4146627 113 109 C106.22370545 93.56510685 96.18193132 83.51136311 80.53125 76.9609375 C75.6117834 75.09336222 71.83841254 73.84032074 66.58203125 74.296875 C60.9722666 74.58483923 56.4559637 74.77887964 51.75244141 71.37207031 C46.89843479 66.97342123 42.57277415 62.06766446 38.15332031 57.24072266 C24.98448074 43.53736556 3.15697528 32.22431789 -15.95703125 31.76171875 C-42.60996141 31.24977771 -62.49056168 39.11892696 -83 56 Z " fill="#F0F0F1" transform="translate(555,201)"/>
<path d="M0 0 C0.97775391 -0.020625 1.95550781 -0.04125 2.96289062 -0.0625 C24.27711942 -0.17519916 45.41152371 11.05827373 60.8125 25.25 C62.12521545 26.64552927 63.42025428 28.05784996 64.69921875 29.484375 C72.29181052 38.62598888 72.29181052 38.62598888 82.97045898 42.50415039 C84.97837534 42.50004422 86.98572733 42.42422371 88.9921875 42.34765625 C100.65135173 42.04962035 113.63276013 48.61371077 122.12890625 56.4375 C134.36468903 69.61012926 139.35827355 83.97336474 139.06640625 101.7578125 C138.42927945 110.52075651 135.70442133 118.42664544 131.8125 126.25 C133.05 126.311875 134.2875 126.37375 135.5625 126.4375 C148.01933056 127.89956931 159.10534547 134.91159959 167.390625 144.11328125 C178.17381551 157.87791681 182.25779814 171.83504961 180.8125 189.25 C179.87898079 193.77126063 178.50802325 197.96066304 176.8125 202.25 C176.48507812 203.11109375 176.15765625 203.9721875 175.8203125 204.859375 C172.48145589 212.51193687 166.84365319 218.58295668 160.8125 224.25 C159.8225 224.58 158.8325 224.91 157.8125 225.25 C158.451875 225.86875 159.09125 226.4875 159.75 227.125 C160.77400421 228.16354972 161.7942428 229.20581495 162.8125 230.25 C163.51375 230.95511719 164.215 231.66023437 164.9375 232.38671875 C176.0615056 244.0556503 181.3619093 257.62216313 181.3046875 273.69433594 C180.77063131 288.73469352 173.49512309 302.82172508 162.8125 313.25 C156.80276764 318.25 156.80276764 318.25 153.8125 318.25 C153.8125 318.91 153.8125 319.57 153.8125 320.25 C154.41908447 320.23187256 155.02566895 320.21374512 155.65063477 320.19506836 C161.86190448 320.0906221 167.65731261 320.62839237 173.75 321.8125 C174.65459961 321.98813477 175.55919922 322.16376953 176.49121094 322.34472656 C214.5282187 330.23319628 248.21514609 354.00183976 276.23828125 379.90625 C278.50449138 381.96956727 280.82485671 383.92460029 283.1875 385.875 C287.83873351 389.99985935 291.29217435 393.83795305 292.25390625 400.14453125 C292.50733559 406.64376746 291.78461762 411.98236094 287.8125 417.25 C283.40992084 421.96618753 278.31555863 424.50696808 271.875 424.875 C263.53035755 424.76209586 256.14032699 421.31565884 248.46484375 418.359375 C243.29536572 416.3831478 238.09014996 414.75774957 232.75 413.3125 C232.01894043 413.11374268 231.28788086 412.91498535 230.53466797 412.71020508 C216.64579719 409.01928436 199.10228374 406.82643271 186.1796875 414.25390625 C168.79375698 428.91431961 163.10930762 455.11480498 156.7734375 475.8984375 C143.80837382 518.30734404 124.3973339 559.28578612 83.625 581 C69.90899677 588.08850718 55.9656176 592.39451301 40.8125 595.25 C39.91015625 595.44335938 39.0078125 595.63671875 38.078125 595.8359375 C25.77081069 598.47321914 13.53057867 598.45009523 1 598.4375 C0.08442322 598.43756042 -0.83115356 598.43762085 -1.7744751 598.43768311 C-15.00875992 598.4252097 -28.06683619 598.13568334 -41.1875 596.25 C-42.17105469 596.11722656 -43.15460938 595.98445312 -44.16796875 595.84765625 C-46.87481548 595.41767303 -49.51493662 594.85916135 -52.1875 594.25 C-52.87569824 594.10224121 -53.56389648 593.95448242 -54.27294922 593.80224609 C-88.34377036 586.4127958 -119.22221879 569.1571524 -139.37890625 540.08984375 C-157.69222353 511.16842096 -166.6733808 478.75887823 -172.1875 445.25 C-172.37441406 444.11691406 -172.56132812 442.98382812 -172.75390625 441.81640625 C-173.77658918 435.57303426 -174.76665952 429.32511078 -175.73901367 423.07373047 C-176.18131079 420.28896812 -176.65080057 417.50995866 -177.125 414.73046875 C-177.99400813 409.55369306 -178.76766447 404.36661765 -179.51953125 399.171875 C-182.07229442 381.57231138 -184.68110356 364.06825066 -188.63476562 346.71679688 C-189.16679984 344.3423827 -189.6603118 341.96347789 -190.140625 339.578125 C-192.60719628 327.51758644 -196.2175657 315.89514062 -200.1875 304.25 C-200.44289551 303.49912109 -200.69829102 302.74824219 -200.96142578 301.97460938 C-204.3135271 292.26136327 -208.47868822 283.11349127 -213.25878906 274.02197266 C-214.08086242 272.45346361 -214.88188233 270.87395963 -215.6796875 269.29296875 C-224.14508114 252.96002 -236.40417624 238.28484814 -249.8605957 225.82592773 C-254.28876227 221.59795077 -256.69994925 217.39876527 -257.65625 211.22265625 C-257.7310891 204.25326551 -257.07073291 199.4204819 -252.1875 194.25 C-247.67320494 189.87648337 -243.53432578 187.86902237 -237.2109375 187.6796875 C-229.23532849 187.85233914 -223.59412772 190.93126554 -216.8125 194.875 C-215.59031427 195.56158799 -214.3670677 196.24629064 -213.14282227 196.92919922 C-209.46628667 198.99445328 -205.82472562 201.1164938 -202.1875 203.25 C-200.59349365 204.178125 -200.59349365 204.178125 -198.96728516 205.125 C-187.6926079 211.72798967 -176.72122724 218.6927475 -166.12280273 226.34033203 C-165.39778564 226.85450684 -164.67276855 227.36868164 -163.92578125 227.8984375 C-163.29712158 228.35395996 -162.66846191 228.80948242 -162.02075195 229.27880859 C-159.94416304 230.56208734 -159.94416304 230.56208734 -156.1875 230.25 C-154.56235532 228.79166642 -154.56235532 228.79166642 -153.1875 227.25 C-152.5275 227.25 -151.8675 227.25 -151.1875 227.25 C-152.1465625 226.321875 -152.1465625 226.321875 -153.125 225.375 C-154.14900421 224.33645028 -155.1692428 223.29418505 -156.1875 222.25 C-156.88875 221.54488281 -157.59 220.83976563 -158.3125 220.11328125 C-169.77443957 208.08986153 -174.7180252 194.37529415 -174.609375 177.95043945 C-174.13821147 163.1878321 -166.86933629 149.30349298 -156.1875 139.25 C-149.26922381 133.54040767 -140.40239239 127.25 -131.1875 127.25 C-131.51363281 126.57195312 -131.83976562 125.89390625 -132.17578125 125.1953125 C-139.41183882 109.78400404 -142.36686361 94.7275012 -136.453125 78.21484375 C-129.95313581 62.98801722 -120.07199356 51.47173686 -104.41796875 45.00390625 C-103.68191406 44.75511719 -102.94585937 44.50632812 -102.1875 44.25 C-100.63289063 43.71052734 -100.63289063 43.71052734 -99.046875 43.16015625 C-94.35090421 42.05270565 -90.05010672 42.03009295 -85.25 42.125 C-84.37537109 42.13402344 -83.50074219 42.14304687 -82.59960938 42.15234375 C-80.46211936 42.1757043 -78.32477214 42.21156753 -76.1875 42.25 C-75.88279785 41.62456299 -75.5780957 40.99912598 -75.26416016 40.35473633 C-71.89667502 33.77172286 -65.81099529 28.86200852 -60.1875 24.25 C-59.26195312 23.47527344 -58.33640625 22.70054687 -57.3828125 21.90234375 C-40.48889196 8.10649507 -21.9554669 0.11353829 0 0 Z M-59.1875 52.25 C-61.00292094 54.58411263 -62.7820653 56.9336335 -64.51171875 59.33203125 C-66.35979015 61.44718989 -67.59245346 62.21610551 -70.1875 63.25 C-72.59423828 63.39770508 -72.59423828 63.39770508 -75.2578125 63.26953125 C-76.2375 63.24052734 -77.2171875 63.21152344 -78.2265625 63.18164062 C-80.26094236 63.10309811 -82.29488924 63.01223527 -84.328125 62.90820312 C-94.59013132 62.64696406 -101.98051181 66.43327865 -109.43359375 73.359375 C-117.03618408 81.55459487 -118.79016165 90.39723428 -118.484375 101.28125 C-117.83357499 109.98141851 -114.6264697 114.94190346 -108.9375 121.375 C-103.4826505 127.55560201 -103.4826505 127.55560201 -103.3125 131.5 C-104.42392297 136.26324129 -105.66191563 141.42866512 -109.8125 144.421875 C-113.2792028 145.63065953 -116.80535325 145.81463724 -120.4375 146.125 C-132.0900118 147.35744191 -139.18710633 151.39733072 -147.1875 160.25 C-153.08968999 169.57492117 -154.66069093 178.92272586 -152.7265625 189.85546875 C-149.38641454 200.95654873 -142.29674886 207.998866 -132.3125 213.375 C-129.1875 215.25 -129.1875 215.25 -127.75 217 C-126.25923428 222.96306287 -126.84448351 229.57033175 -129.1875 235.25 C-131.77756524 238.44949236 -134.75532547 240.67184864 -138.0625 243.0625 C-141.8243392 245.79515677 -144.65314478 248.89143861 -147.546875 252.515625 C-149.45070566 254.52824598 -150.52448294 255.4347907 -153.1875 256.25 C-160.26486152 256.22038761 -163.98758529 253.78211975 -169.4375 249.5 C-171.02705055 248.30473088 -172.61960722 247.11345108 -174.21484375 245.92578125 C-175.0332373 245.31428223 -175.85163086 244.7027832 -176.69482422 244.07275391 C-189.76530458 234.51504515 -203.80527819 226.3713284 -217.93652344 218.50683594 C-219.92673603 217.39559793 -221.90668659 216.26883553 -223.8828125 215.1328125 C-225.36394531 214.29363281 -225.36394531 214.29363281 -226.875 213.4375 C-227.68324219 212.97730469 -228.49148438 212.51710938 -229.32421875 212.04296875 C-229.93910156 211.78128906 -230.55398438 211.51960937 -231.1875 211.25 C-231.8475 211.58 -232.5075 211.91 -233.1875 212.25 C-232.57003906 212.84425781 -231.95257813 213.43851563 -231.31640625 214.05078125 C-196.27951916 248.341068 -178.89909549 293.2558615 -168.4375 340.3125 C-168.16784424 341.51592041 -167.89818848 342.71934082 -167.62036133 343.95922852 C-165.40099946 354.32696549 -163.82170594 364.77592 -162.24511719 375.25805664 C-160.65825027 385.80842984 -158.95425179 396.34017929 -157.26025391 406.8737793 C-156.68610525 410.44617822 -156.11448347 414.01897575 -155.54296875 417.59179688 C-153.75832732 428.71945148 -151.94200144 439.84055031 -150.01953125 450.9453125 C-149.78218262 452.32090584 -149.78218262 452.32090584 -149.54003906 453.72428894 C-143.05381499 490.82353164 -128.97709862 530.58566093 -97.3125 553.4375 C-87.76345245 560.13153293 -78.3567863 564.83114644 -67.1875 568.25 C-65.76976542 568.7469639 -64.35302028 569.2467637 -62.9375 569.75 C-58.83702857 571.1069372 -54.6806238 572.2328554 -50.5 573.3125 C-49.25863281 573.63347656 -48.01726562 573.95445312 -46.73828125 574.28515625 C-33.262232 577.27385203 -20.13937094 577.59257383 -6.38549805 577.56567383 C-3.02424382 577.56252273 0.33612011 577.586012 3.69726562 577.61132812 C20.16139901 577.66052367 36.20510462 576.53088001 52 571.5625 C52.82185791 571.30831299 53.64371582 571.05412598 54.49047852 570.79223633 C75.93703327 563.86456163 94.09825647 551.0959394 107.8125 533.25 C108.40933594 532.48042969 109.00617188 531.71085937 109.62109375 530.91796875 C122.53489141 513.41127307 129.80237226 492.67614238 136.43359375 472.1796875 C136.75630249 471.18271347 137.07901123 470.18573944 137.41149902 469.15855408 C139.0381147 464.11922459 140.6476481 459.07519553 142.23291016 454.02270508 C156.90050881 407.68759681 156.90050881 407.68759681 175.875 396.43359375 C178.8219602 394.93483335 181.77127369 393.54549445 184.8125 392.25 C185.59109375 391.88777344 186.3696875 391.52554687 187.171875 391.15234375 C210.98665137 383.01445419 240.06308625 392.18773205 262.21777344 401.20336914 C266.41834029 403.03153201 266.41834029 403.03153201 270.8125 402.25 C238.18732496 372.42337271 200.43013768 343.74068989 154.875 340.3125 C147.50499175 339.75240854 140.80077843 339.04346754 134.8125 334.25 C131.84863404 329.80420106 132.40530419 325.60752419 132.375 320.375 C132.34212891 319.38113281 132.30925781 318.38726563 132.27539062 317.36328125 C132.22156512 310.05279905 132.22156512 310.05279905 135.03515625 306.23046875 C137.53695773 304.44648373 139.97334914 302.87261811 142.6875 301.4375 C151.54455493 296.27088463 156.41996046 289.07425092 159.390625 279.359375 C161.53780418 268.62347908 159.25199767 259.31104081 153.49609375 250.15625 C148.09255039 243.13626205 139.69339441 239.36234978 131.625 236.20703125 C129.8125 235.25 129.8125 235.25 127.8125 232.25 C127.076099 226.80838419 126.76605754 221.90405422 129.75 217.1875 C132.38203571 215.52233455 134.09378266 214.78257029 137 213.9375 C144.98367648 211.54239706 150.96735749 206.13431748 155.3125 199.125 C160.4749525 189.51467175 161.05320308 180.30040727 158.625 169.66015625 C155.51128778 160.42380797 148.07645237 153.29022809 139.5625 148.875 C135.36375755 146.87972983 131.61387145 146.13663869 126.96875 146.07421875 C126.05222656 146.05037109 125.13570312 146.02652344 124.19140625 146.00195312 C122.2723619 145.95898945 120.35301959 145.92773595 118.43359375 145.90820312 C111.43186845 145.69647725 111.43186845 145.69647725 108.265625 143.4140625 C104.82441722 138.28925306 102.72720721 133.43616888 103.8125 127.25 C105.3688458 125.08768202 107.08777152 123.22081963 108.9296875 121.296875 C116.62848058 112.92723273 118.38400664 104.50009745 118.125 93.42578125 C117.85410484 88.34762581 116.59943714 84.50878832 113.8125 80.25 C113.4 79.56808594 112.9875 78.88617188 112.5625 78.18359375 C107.73320887 70.95337663 100.32319767 65.26698615 91.8125 63.25 C87.13235057 63.05100298 82.4584201 63.25296925 77.77929688 63.41601562 C68.64552715 63.59583865 68.64552715 63.59583865 64.8125 60.25 C62.6015625 57.796875 62.6015625 57.796875 60.4375 55 C48.05058476 39.50620273 30.51877424 25.22429622 10.43359375 21.6484375 C-17.94897443 18.52543647 -40.55646822 31.08477247 -59.1875 52.25 Z " fill="#413A6E" transform="translate(532.1875,232.75)"/>
<path d="M0 0 C42.774418 -1.75702284 81.70701842 28.35510117 112.15576172 54.81884766 C115.0328235 57.31275131 117.92703988 59.786659 120.8203125 62.26171875 C117.36585568 63.41320436 116.8348079 63.13176969 113.59375 61.8203125 C112.73982666 61.48644531 111.88590332 61.15257812 111.00610352 60.80859375 C110.07854248 60.4425 109.15098145 60.07640625 108.1953125 59.69921875 C82.78344943 50.16213496 54.77811486 43.27465443 28.77734375 54.65625 C12.04792029 63.73919986 3.68733735 81.97933323 -2.53515625 99.06640625 C-2.83447556 99.88369202 -3.13379486 100.70097778 -3.44218445 101.54302979 C-6.42487184 109.78158796 -9.06443128 118.12053681 -11.69177246 126.47753906 C-19.90953618 152.49565326 -28.91699411 178.47256581 -47.1796875 199.26171875 C-47.9634375 200.29296875 -48.7471875 201.32421875 -49.5546875 202.38671875 C-69.01911413 223.7049003 -98.86759364 234.9395803 -127.1796875 237.26171875 C-131.21659197 237.38480533 -135.24689314 237.36950413 -139.28515625 237.33203125 C-140.33844116 237.32695557 -141.39172607 237.32187988 -142.47692871 237.31665039 C-145.04459329 237.30353891 -147.61209977 237.28513451 -150.1796875 237.26171875 C-150.27274326 225.75176532 -150.34363213 214.24190274 -150.38693619 202.73164845 C-150.40772959 197.38582293 -150.43589519 192.04025652 -150.48144531 186.69458008 C-150.52519891 181.52686232 -150.54888648 176.35939236 -150.55919647 171.19150352 C-150.5665352 169.22891024 -150.58086469 167.26632911 -150.60260773 165.30384254 C-150.72081924 154.18274522 -150.41422365 144.69682569 -146.1796875 134.26171875 C-145.50389648 132.47713257 -145.50389648 132.47713257 -144.81445312 130.65649414 C-144.40904297 129.73344482 -144.00363281 128.81039551 -143.5859375 127.859375 C-143.11945801 126.79605957 -142.65297852 125.73274414 -142.17236328 124.63720703 C-141.67978027 123.5439209 -141.18719727 122.45063477 -140.6796875 121.32421875 C-140.15487793 120.15616699 -139.63006836 118.98811523 -139.08935547 117.78466797 C-117.2167948 69.80341058 -85.32784763 25.63260543 -35.1796875 5.26171875 C-23.75064334 1.74869288 -11.84634397 0.97506762 0 0 Z " fill="#739E4D" transform="translate(682.1796875,572.73828125)"/>
<path d="M0 0 C11.92606547 9.68992819 21.36099321 21.4140259 24 37 C25.63236987 53.5064012 23.63483864 68.71954879 13 82 C12.47664063 82.68449219 11.95328125 83.36898437 11.4140625 84.07421875 C3.14169631 94.26903623 -8.94409005 101.13487001 -22 103 C-33.66885523 103.78781764 -44.03035303 103.32747541 -55 99 C-58.18334037 97.80129989 -61.37322405 96.62030255 -64.5625 95.4375 C-65.38177979 95.13102539 -66.20105957 94.82455078 -67.04516602 94.50878906 C-76.83108104 90.88299092 -86.72030057 88.72002845 -97 87 C-99.07795423 92.14592555 -100.98554954 97.344889 -102.875 102.5625 C-103.45894531 104.17366699 -103.45894531 104.17366699 -104.0546875 105.81738281 C-106.44849034 112.48823807 -108.7419125 119.18224729 -110.9453125 125.91796875 C-111.32002182 127.06323784 -111.32002182 127.06323784 -111.70230103 128.23164368 C-111.95377899 129.00042343 -112.20525696 129.76920319 -112.46435547 130.5612793 C-117.30917751 145.36769005 -122.33205469 159.89216526 -129 174 C-129.32919434 174.70914551 -129.65838867 175.41829102 -129.99755859 176.14892578 C-149.74770516 218.44543936 -182.41341046 249.21457159 -226 266 C-240.25260697 271.06205388 -255.05900411 273.85587272 -270 276 C-271.19334961 276.1750708 -272.38669922 276.3501416 -273.61621094 276.53051758 C-278.80663358 277.16595656 -283.99096244 277.21796344 -289.21484375 277.2734375 C-290.29095413 277.28601089 -291.36706451 277.29858429 -292.4757843 277.3115387 C-350.13775592 277.85396363 -407.39561281 268.82868512 -450.6796875 227.4375 C-452.81053624 225.31328941 -454.91926951 223.1732074 -457 221 C-453.20257392 221 -452.56796796 221.97896673 -449.75 224.4375 C-413.38984369 254.20574308 -364.18971333 262.45167723 -318.5625 262.375 C-316.90531952 262.37518127 -316.90531952 262.37518127 -315.21466064 262.37536621 C-298.80202344 262.3497907 -283.05740451 261.67968714 -267 258 C-265.86546387 257.75975098 -265.86546387 257.75975098 -264.70800781 257.51464844 C-260.07644333 256.53244814 -255.54322005 255.34178001 -251 254 C-250.30567871 253.79681152 -249.61135742 253.59362305 -248.89599609 253.38427734 C-226.53781514 246.72999766 -206.74520616 236.15488244 -189 221 C-188.16984375 220.29230469 -187.3396875 219.58460938 -186.484375 218.85546875 C-153.72493852 190.16583956 -138.40893769 149.54359277 -125.09765625 109.2578125 C-124.85428528 108.52235703 -124.61091431 107.78690155 -124.36016846 107.02915955 C-123.17684708 103.44899961 -122.00176028 99.86652009 -120.84228516 96.27856445 C-118.34494554 88.61450587 -115.54404749 81.24664197 -112 74 C-94.71532122 72.90256008 -78.3435964 80.13967527 -62.47924805 86.1237793 C-50.61534454 90.31674332 -35.12048475 89.77686659 -23.75 84.4765625 C-22.8425 83.98929688 -21.935 83.50203125 -21 83 C-20.113125 82.55398438 -19.22625 82.10796875 -18.3125 81.6484375 C-4.91041704 74.33449588 3.31490058 62.29555978 8 48 C11.69871667 33.92021852 9.22438958 18.3505052 2.25 5.8125 C1.60804688 4.77029297 1.60804688 4.77029297 0.953125 3.70703125 C0 2 0 2 0 0 Z " fill="#000000" transform="translate(842,603)"/>
<path d="M0 0 C2.13740243 0.00315681 4.27341271 -0.02034562 6.41064453 -0.0456543 C18.35250516 -0.10085109 27.85337961 1.35373809 36.89892578 9.75317383 C38.07455078 11.02161133 38.07455078 11.02161133 39.27392578 12.31567383 C39.95455078 13.03754883 40.63517578 13.75942383 41.33642578 14.50317383 C47.54858446 23.52082352 48.34289682 32.67004468 47.27392578 43.31567383 C46.43978084 46.74109745 45.19581897 49.37295311 43.27392578 52.31567383 C42.78794922 53.08395508 42.30197266 53.85223633 41.80126953 54.64379883 C36.42467154 62.32102149 29.25115955 66.79672196 20.27392578 69.31567383 C17.48801934 69.50098136 14.80684978 69.59657208 12.02392578 69.58129883 C11.24758789 69.58321228 10.47125 69.58512573 9.67138672 69.58709717 C8.03759434 69.58845209 6.40379094 69.58480426 4.77001953 69.57641602 C2.28149027 69.56570638 -0.20631718 69.57633463 -2.69482422 69.58911133 C-4.2885758 69.58778961 -5.88232693 69.58522696 -7.47607422 69.58129883 C-8.21374023 69.58534729 -8.95140625 69.58939575 -9.71142578 69.59356689 C-18.2394207 69.51686395 -24.97540454 66.34663177 -31.72607422 61.31567383 C-40.50159361 52.16359297 -43.14770071 43.3491996 -42.99169922 30.88208008 C-42.23859492 20.77054735 -36.9923272 14.07749272 -29.72607422 7.31567383 C-20.74934365 0.12418424 -11.09088593 -0.03422331 0 0 Z " fill="#FEE284" transform="translate(421.72607421875,378.684326171875)"/>
<path d="M0 0 C1.38747359 -0.01151229 2.77490316 -0.0319528 4.16210938 -0.06152344 C16.77202268 -0.32931018 26.21692098 1.74063326 35.77661133 10.29516602 C41.61341332 16.39727719 45.20129826 22.80929825 45.77661133 31.29516602 C45.83977539 32.13047852 45.90293945 32.96579102 45.96801758 33.82641602 C46.40743645 43.9188753 43.15942841 51.51576741 36.76489258 59.25219727 C29.98967134 66.21377037 22.25962116 69.4505708 12.57315063 69.62435913 C11.45569962 69.6276976 11.45569962 69.6276976 10.31567383 69.63110352 C9.52566986 69.63776031 8.73566589 69.64441711 7.92172241 69.65127563 C6.25944324 69.66134657 4.5971241 69.66609439 2.93481445 69.66577148 C0.41524521 69.67014236 -2.10256623 69.70651225 -4.62182617 69.74438477 C-20.2184675 69.85481613 -20.2184675 69.85481613 -27.22338867 65.29516602 C-28.09350586 64.77696289 -28.96362305 64.25875977 -29.86010742 63.72485352 C-36.84950023 58.42622811 -41.50297777 51.66471848 -44.22338867 43.29516602 C-45.43030385 31.69607593 -44.0880041 21.53853113 -36.97338867 11.92016602 C-25.91859103 1.36785918 -14.77717091 0.08511595 0 0 Z " fill="#FEE285" transform="translate(646.223388671875,378.704833984375)"/>
<path d="M0 0 C0.77109604 -0.00807175 1.54219208 -0.01614349 2.33665466 -0.02445984 C3.97156538 -0.03828819 5.60650482 -0.04901594 7.24145508 -0.05688477 C8.89876884 -0.06835462 10.55604712 -0.08872657 12.21313477 -0.1184082 C25.46878147 -0.35570801 36.05678907 0.76481881 46.18359375 10.23828125 C52.61925741 17.40361199 55.7658462 24.32075115 55.68359375 33.92578125 C55.67714844 34.71452637 55.67070313 35.50327148 55.6640625 36.31591797 C55.37703809 45.5781202 52.71982099 52.92791146 46.30859375 59.73828125 C38.56123524 66.74433529 30.43991586 69.54187273 19.9765625 69.57421875 C19.21112625 69.58087555 18.44569 69.58753235 17.65705872 69.59439087 C16.0460549 69.60446035 14.43500986 69.60920967 12.82397461 69.60888672 C10.38779309 69.61325133 7.95343906 69.649605 5.51757812 69.6875 C-7.32746978 69.78270758 -16.01131907 67.87275084 -25.61328125 58.75390625 C-33.67152797 49.55264581 -34.61877026 39.12172044 -34.03857422 27.39501953 C-33.54573562 22.61069406 -31.60870159 19.06081278 -28.81640625 15.23828125 C-28.32011719 14.52414062 -27.82382812 13.81 -27.3125 13.07421875 C-20.5024652 4.31142699 -10.87679317 0.10848765 0 0 Z " fill="#FEE284" transform="translate(524.81640625,566.76171875)"/>
<path d="M0 0 C0.74369843 -0.00807175 1.48739685 -0.01614349 2.25363159 -0.02445984 C3.8253144 -0.03824869 5.39702651 -0.04899394 6.96875 -0.05688477 C8.55705706 -0.06836378 10.1453268 -0.08875065 11.73339844 -0.1184082 C23.33755784 -0.33468731 34.13115031 0.20826882 43.6875 7.70703125 C50.27583136 14.19604103 55.29066881 23.74949625 55.7421875 33.05078125 C55.23603582 43.43505447 51.68963244 52.9238264 44.2421875 60.23828125 C34.35643534 68.88831439 22.25411746 69.72906751 9.6171875 69.55078125 C8.46734375 69.55400391 7.3175 69.55722656 6.1328125 69.56054688 C-5.88525668 69.48526284 -15.29237127 68.10731224 -24.7578125 60.23828125 C-32.13497353 52.38635243 -35.57502683 43.98637693 -36.2578125 33.30078125 C-35.89479443 23.37302608 -30.78582293 14.94167226 -23.7578125 8.23828125 C-16.48809727 1.67780653 -9.53780348 0.09989831 0 0 Z " fill="#FEE284" transform="translate(525.7578125,469.76171875)"/>
<path d="M0 0 C0.781474 -0.00761353 1.562948 -0.01522705 2.36810303 -0.02307129 C4.01180859 -0.03380723 5.65558201 -0.03675208 7.29931641 -0.03222656 C9.77756241 -0.03125755 12.2526709 -0.07287957 14.73046875 -0.1171875 C26.37366585 -0.2044651 37.15999309 1.28498276 46.01953125 9.66796875 C53.96322828 19.03381103 56.43089021 28.37770329 55.546875 40.46875 C54.06226502 49.97025388 49.00172348 56.9969234 41.484375 62.84375 C31.47157451 69.79494418 22.59283712 69.65004463 10.734375 69.65625 C9.51427734 69.66849609 8.29417969 69.68074219 7.03710938 69.69335938 C-4.57052803 69.71207131 -13.25409666 68.85195524 -22.453125 61.46875 C-23.09378906 60.96472656 -23.73445312 60.46070313 -24.39453125 59.94140625 C-30.75363355 54.32397031 -34.1806001 46.88270157 -34.8984375 38.453125 C-35.24920698 30.80886223 -34.68852824 24.03230968 -30.453125 17.46875 C-29.79957031 16.42654297 -29.79957031 16.42654297 -29.1328125 15.36328125 C-22.10113306 5.12315791 -12.34011939 0.00340295 0 0 Z " fill="#FEE284" transform="translate(636.453125,469.53125)"/>
<path d="M0 0 C1.15564453 -0.020625 2.31128906 -0.04125 3.50195312 -0.0625 C15.04650816 -0.11435651 25.89800459 1.39634665 34.8125 9.25 C40.00988964 14.62975419 43.03718788 20.00672656 44.8125 27.25 C45.039375 28.11625 45.26625 28.9825 45.5 29.875 C46.68273693 38.8638007 44.26118127 46.53402126 40.125 54.5 C33.47950403 62.40275197 26.43658816 68.25167145 15.82949829 69.47955322 C11.27056238 69.80188565 6.71945246 69.82009854 2.15112305 69.77148438 C-0.24988401 69.75000104 -2.64791055 69.77139327 -5.04882812 69.796875 C-17.76690965 69.82205948 -26.51730547 67.8007629 -35.98828125 58.74609375 C-42.28962826 51.59412085 -45.76569827 41.93263961 -45.4296875 32.375 C-44.35278658 22.92606289 -40.15948057 14.88986399 -33.19921875 8.39453125 C-22.89328628 0.28986591 -12.57636075 0.05518973 0 0 Z " fill="#FEE284" transform="translate(535.1875,378.75)"/>
<path d="M0 0 C0.79283386 -0.00428513 1.58566772 -0.00857025 2.40252686 -0.01298523 C4.07677255 -0.01871331 5.75104312 -0.01924002 7.42529297 -0.01489258 C9.96235662 -0.01174606 12.49823769 -0.0351629 15.03515625 -0.06054688 C27.81795818 -0.11234316 37.02110189 1.15457305 46.734375 10.30078125 C54.41746089 18.67015586 56.34770886 26.24291213 56.078125 37.54296875 C55.20614909 47.07525089 51.57004796 53.7304198 44.734375 60.30078125 C43.5896875 61.41453125 43.5896875 61.41453125 42.421875 62.55078125 C34.04384374 68.00624347 23.66150384 71.26403897 13.734375 69.30078125 C9.27964606 66.39463899 5.92005506 62.68470649 2.421875 58.73828125 C1.49219243 57.73460056 0.55925923 56.73392075 -0.37695312 55.73632812 C-2.18766163 53.805169 -3.98647607 51.86529367 -5.77954102 49.91748047 C-9.07431169 46.44960733 -12.59438134 43.35876976 -16.265625 40.30078125 C-17.44315832 39.28196944 -18.61898246 38.26117832 -19.79296875 37.23828125 C-20.9289286 36.25823426 -22.06565265 35.27907238 -23.203125 34.30078125 C-23.80141113 33.78604248 -24.39969727 33.27130371 -25.01611328 32.7409668 C-29.17001595 29.18741978 -33.40894512 25.78095476 -37.7890625 22.5078125 C-38.27632813 22.10949219 -38.76359375 21.71117187 -39.265625 21.30078125 C-39.265625 20.97078125 -39.265625 20.64078125 -39.265625 20.30078125 C-38.44771484 20.14996094 -38.44771484 20.14996094 -37.61328125 19.99609375 C-30.87116168 18.31344511 -27.84347486 14.98822454 -23.46484375 9.74609375 C-20.48375445 6.43141897 -17.25207823 4.24539258 -13.265625 2.30078125 C-12.57146484 1.95764893 -11.87730469 1.6145166 -11.16210938 1.26098633 C-7.42703002 0.02278108 -3.8910873 -0.00469537 0 0 Z " fill="#FEE284" transform="translate(413.265625,469.69921875)"/>
<path d="M0 0 C7.48763023 5.14111304 13.33472745 11.77249081 15.91796875 20.703125 C17.77348287 30.93972538 16.43514725 39.94039077 11.16015625 48.9609375 C5.32818569 57.34240338 -2.60989324 62.36445043 -12.51953125 64.703125 C-23.24324335 65.92359863 -31.72758619 63.58451964 -40.453125 57.34765625 C-48.34858573 51.06412323 -52.62908311 42.56629604 -53.93359375 32.51171875 C-54.22409633 22.17246788 -51.43358486 14.36802606 -44.51953125 6.703125 C-32.37524844 -5.85109141 -15.46010893 -8.83434796 0 0 Z " fill="#FEE284" transform="translate(550.51953125,293.296875)"/>
<path d="M0 0 C1.06347656 0.00845947 1.06347656 0.00845947 2.1484375 0.01708984 C12.91694505 0.26472629 20.2017214 3.5412091 28 10.90625 C35.08991242 18.42155716 36.99432662 26.84456569 36.92138672 36.91137695 C36.45735099 47.02040653 31.76065547 54.90664735 24.39453125 61.6953125 C21.25207646 64.13616857 17.99061752 65.82950651 14.3125 67.3125 C13.55710937 67.66828125 12.80171875 68.0240625 12.0234375 68.390625 C4.32024997 71.01015275 -5.95067851 70.30186945 -13.27734375 66.828125 C-23.08169679 60.66266474 -29.0575968 53.20220961 -32.6875 42.3125 C-33.30218313 33.34417236 -33.70816527 25.12591033 -28.6875 17.3125 C-28.06875 16.28769531 -28.06875 16.28769531 -27.4375 15.2421875 C-21.07127039 5.72901485 -11.42205867 -0.0944641 0 0 Z " fill="#FEE284" transform="translate(446.6875,295.6875)"/>
<path d="M0 0 C0.63035156 0.4125 1.26070312 0.825 1.91015625 1.25 C2.93302734 1.86875 2.93302734 1.86875 3.9765625 2.5 C11.31138169 7.39915817 16.67477916 14.70542777 18.91015625 23.25 C20.18549143 35.4392612 18.90317053 44.7648978 11.01171875 54.62109375 C6.87390194 59.07783319 2.56715822 62.05646863 -3.08984375 64.25 C-4.14171875 64.6625 -5.19359375 65.075 -6.27734375 65.5 C-15.64256833 67.34233926 -24.76176695 67.27649295 -33.08984375 62.25 C-41.38082243 56.06215814 -47.27239602 49.27716115 -50.08984375 39.25 C-51.11535338 28.00934894 -50.05855274 17.95215603 -42.74609375 9.0625 C-32.26099141 -2.41176294 -14.48343945 -8.03705311 0 0 Z " fill="#FEE284" transform="translate(631.08984375,298.75)"/>
<path d="M0 0 C14.13956599 6.47168855 22.62848934 25.21211105 28 39 C35.05346691 60.89259454 34.21261325 86.05004022 24.125 106.82421875 C23.21923542 108.57599262 22.29934764 110.32046022 21.375 112.0625 C20.84996933 116.17524027 22.51254709 118.32258477 24.48828125 121.87890625 C26.35762829 125.73835918 27.56553014 129.63726969 28.75 133.75 C28.96019775 134.47098877 29.17039551 135.19197754 29.38696289 135.93481445 C31.57200338 143.65969604 32.18213734 150.86317912 32.1875 158.875 C32.19974609 159.83019531 32.21199219 160.78539062 32.22460938 161.76953125 C32.22654297 162.70925781 32.22847656 163.64898438 32.23046875 164.6171875 C32.23457764 165.45878418 32.23868652 166.30038086 32.24291992 167.16748047 C31.92783866 170.841423 30.89433281 174.42266877 30 178 C22.08 174.535 22.08 174.535 14 171 C14.495 168.97875 14.99 166.9575 15.5 164.875 C19.65346992 145.36406952 17.37340287 125.71344389 9.1484375 107.61328125 C8.57996094 106.31970703 8.57996094 106.31970703 8 105 C7.55527344 104.05769531 7.11054687 103.11539063 6.65234375 102.14453125 C5.75869714 97.83683352 7.276377 95.1331174 9.1875 91.375 C18.74128488 71.19943529 20.23897784 47.20529129 13 26 C9.62648727 16.81948258 5.37150839 8.18515564 0 0 Z " fill="#000000" transform="translate(723,359)"/>
<path d="M0 0 C1.22912109 -0.020625 2.45824219 -0.04125 3.72460938 -0.0625 C11.11390721 -0.09402767 17.39403542 0.59051775 24.3125 3.25 C23.17115978 6.43036376 21.75192776 9.35643894 20.1328125 12.3125 C12.47703583 26.29893207 6.35669222 40.67594661 0.46655273 55.46704102 C-0.49672244 57.7899464 -1.52510041 60.02192799 -2.6875 62.25 C-4.45037821 58.98256243 -5.59354055 55.67504459 -6.71875 52.140625 C-7.30970459 50.31168701 -7.30970459 50.31168701 -7.91259766 48.44580078 C-8.22429901 47.47951752 -8.22429901 47.47951752 -8.54229736 46.49371338 C-13.20694781 32.07967431 -18.58645053 18.12743536 -24.6875 4.25 C-16.46507468 -0.14804145 -9.17000139 0.03787301 0 0 Z " fill="#FEE284" transform="translate(534.6875,656.75)"/>
<path d="M0 0 C2.36680338 0.00630243 4.72854198 -0.04063978 7.09472656 -0.09130859 C17.60295944 -0.17449808 25.31475663 1.66357785 34.63378906 6.63134766 C34.63378906 6.96134766 34.63378906 7.29134766 34.63378906 7.63134766 C33.44785156 7.72931641 32.26191406 7.82728516 31.04003906 7.92822266 C4.34085775 10.30999616 -16.60737672 18.69577411 -37.30761719 36.06494141 C-39.36621094 37.63134766 -39.36621094 37.63134766 -42.36621094 38.63134766 C-42.91010746 28.98222047 -41.37678174 21.4097334 -35.36621094 13.63134766 C-32.92871094 11.00634766 -32.92871094 11.00634766 -30.36621094 8.63134766 C-29.64433594 7.95072266 -28.92246094 7.27009766 -28.17871094 6.56884766 C-19.34893328 0.48611193 -10.41325731 -0.05782763 0 0 Z " fill="#FCE183" transform="translate(644.3662109375,566.36865234375)"/>
<path d="M0 0 C1.33897583 0.95043374 2.67105427 1.91059147 4 2.875 C5.11375 3.67550781 5.11375 3.67550781 6.25 4.4921875 C6.8275 4.98976563 7.405 5.48734375 8 6 C8 6.66 8 7.32 8 8 C8.99 8.33 9.98 8.66 11 9 C25.01151795 25.28727405 34.31799515 45.63825863 34.0625 67.375 C34.05798828 68.11105469 34.05347656 68.84710938 34.04882812 69.60546875 C34.03715142 71.40368158 34.01922011 73.20185197 34 75 C32.79004746 74.10635485 31.58213889 73.20994221 30.375 72.3125 C29.70210937 71.81363281 29.02921875 71.31476563 28.3359375 70.80078125 C27.56507813 70.20652344 26.79421875 69.61226563 26 69 C24.93394531 68.28070313 23.86789062 67.56140625 22.76953125 66.8203125 C19.72633279 63.72131491 19.32952843 62.15034494 19.27050781 57.87182617 C19.28436523 57.10974854 19.29822266 56.3476709 19.3125 55.5625 C19.2804242 53.94512687 19.23996853 52.32789959 19.19140625 50.7109375 C19.16836426 49.91268555 19.14532227 49.11443359 19.12158203 48.29199219 C18.24437926 31.75548689 10.82064074 14.41191144 0 2 C0 1.34 0 0.68 0 0 Z " fill="#020202" transform="translate(679,273)"/>
<path d="M0 0 C-0.99 1.98 -1.98 3.96 -3 6 C-5.01920337 4.69593116 -7.01924973 3.36176581 -9 2 C-9 1.67 -9 1.34 -9 1 C-2.25 -1.125 -2.25 -1.125 0 0 Z " fill="#F0B551" transform="translate(383,489)"/>
</svg>
